<svg width="61" height="25" viewBox="0 0 61 25" fill="none" xmlns="http://www.w3.org/2000/svg">
<path d="M21.7125 9.15909H16.0307C15.955 8.57576 15.7997 8.04924 15.5648 7.57954C15.33 7.10985 15.0194 6.70833 14.633 6.375C14.2466 6.04167 13.7883 5.78788 13.258 5.61364C12.7353 5.43182 12.1557 5.34091 11.5194 5.34091C10.3906 5.34091 9.41708 5.61742 8.5989 6.17045C7.78829 6.72348 7.16329 7.52273 6.7239 8.56818C6.29208 9.61364 6.07617 10.8788 6.07617 12.3636C6.07617 13.9091 6.29587 15.2045 6.73526 16.25C7.18223 17.2879 7.80723 18.072 8.61026 18.6023C9.42087 19.125 10.3792 19.3864 11.4853 19.3864C12.1065 19.3864 12.6709 19.3068 13.1784 19.1477C13.6936 18.9886 14.1444 18.7576 14.5307 18.4545C14.9247 18.1439 15.2466 17.7689 15.4966 17.3295C15.7542 16.8826 15.9322 16.3788 16.0307 15.8182L21.7125 15.8523C21.6141 16.8826 21.3148 17.8977 20.8148 18.8977C20.3224 19.8977 19.6444 20.8106 18.7807 21.6364C17.9171 22.4545 16.8641 23.1061 15.6216 23.5909C14.3868 24.0758 12.9701 24.3182 11.3716 24.3182C9.26557 24.3182 7.3792 23.8561 5.71254 22.9318C4.05344 22 2.74284 20.6439 1.78072 18.8636C0.818596 17.0833 0.337536 14.9167 0.337536 12.3636C0.337536 9.80303 0.826172 7.63258 1.80344 5.85227C2.78072 4.07197 4.10269 2.7197 5.76935 1.79545C7.43602 0.871211 9.30344 0.40909 11.3716 0.40909C12.7807 0.40909 14.0837 0.60606 15.2807 1C16.4777 1.38636 17.5307 1.95454 18.4398 2.70454C19.3489 3.44697 20.0875 4.35985 20.6557 5.44318C21.2239 6.52652 21.5762 7.76515 21.7125 9.15909ZM46.8972 12.3636C46.8972 14.9242 46.4048 17.0947 45.4199 18.875C44.4351 20.6553 43.1017 22.0076 41.4199 22.9318C39.7457 23.8561 37.8669 24.3182 35.7836 24.3182C33.6926 24.3182 31.8101 23.8523 30.1358 22.9205C28.4616 21.9886 27.132 20.6364 26.1472 18.8636C25.1699 17.0833 24.6813 14.9167 24.6813 12.3636C24.6813 9.80303 25.1699 7.63258 26.1472 5.85227C27.132 4.07197 28.4616 2.7197 30.1358 1.79545C31.8101 0.871211 33.6926 0.40909 35.7836 0.40909C37.8669 0.40909 39.7457 0.871211 41.4199 1.79545C43.1017 2.7197 44.4351 4.07197 45.4199 5.85227C46.4048 7.63258 46.8972 9.80303 46.8972 12.3636ZM41.1472 12.3636C41.1472 10.8485 40.9313 9.56818 40.4995 8.52273C40.0752 7.47727 39.4616 6.6856 38.6586 6.14773C37.8631 5.60985 36.9048 5.34091 35.7836 5.34091C34.6699 5.34091 33.7116 5.60985 32.9086 6.14773C32.1055 6.6856 31.4881 7.47727 31.0563 8.52273C30.632 9.56818 30.4199 10.8485 30.4199 12.3636C30.4199 13.8788 30.632 15.1591 31.0563 16.2045C31.4881 17.25 32.1055 18.0417 32.9086 18.5795C33.7116 19.1174 34.6699 19.3864 35.7836 19.3864C36.9048 19.3864 37.8631 19.1174 38.6586 18.5795C39.4616 18.0417 40.0752 17.25 40.4995 16.2045C40.9313 15.1591 41.1472 13.8788 41.1472 12.3636ZM49.4924 24V21.4716L54.7978 16.8267C55.1955 16.4669 55.534 16.1378 55.8134 15.8395C56.0927 15.5365 56.3058 15.2334 56.4526 14.9304C56.5994 14.6226 56.6728 14.2888 56.6728 13.929C56.6728 13.5265 56.5852 13.1832 56.41 12.8991C56.2348 12.6103 55.9933 12.3878 55.6855 12.2315C55.3778 12.0753 55.025 11.9972 54.6273 11.9972C54.2248 11.9972 53.8721 12.08 53.5691 12.2457C53.266 12.4067 53.0293 12.6411 52.8588 12.9489C52.6931 13.2566 52.6103 13.6307 52.6103 14.071H49.2793C49.2793 13.0814 49.5018 12.2268 49.9469 11.5071C50.392 10.7874 51.017 10.2334 51.8219 9.84517C52.6316 9.45218 53.5714 9.25568 54.6415 9.25568C55.7447 9.25568 56.7035 9.44034 57.5179 9.80966C58.3323 10.179 58.9621 10.6951 59.4071 11.358C59.8569 12.0161 60.0819 12.7808 60.0819 13.652C60.0819 14.206 59.9706 14.7552 59.748 15.2997C59.5255 15.8442 59.1254 16.4455 58.5478 17.1037C57.9748 17.7618 57.1605 18.5502 56.1046 19.4688L54.3645 21.0739V21.1662H60.2594V24H49.4924Z" fill="#929292"/>
</svg>
