<svg width="34" height="39" viewBox="0 0 34 39" fill="none" xmlns="http://www.w3.org/2000/svg">
<path d="M25.3843 6.30168C27.3408 4.90131 27.993 2.80075 27.3408 0C31.906 1.40037 31.2538 7.00187 29.2973 10.5028" fill="#929292" fill-opacity="0.6"/>
<path d="M8.61585 6.30168C6.65933 4.90131 6.00716 2.80075 6.65933 0C2.09411 1.40037 2.74629 7.00187 4.70281 10.5028" fill="#929292" fill-opacity="0.6"/>
<path d="M17 36.4097C25.2843 36.4097 32 29.1996 32 20.3054C32 11.4113 25.2843 4.20114 17 4.20114C8.71573 4.20114 2 11.4113 2 20.3054C2 29.1996 8.71573 36.4097 17 36.4097Z" stroke="#929292" stroke-width="4" stroke-miterlimit="10"/>
<path d="M13.0869 18.1524C13.0869 19.3124 12.2098 20.253 11.1303 20.253C10.0508 20.253 9.17383 19.3124 9.17383 18.1524C9.17383 16.9934 10.0508 16.0519 11.1303 16.0519C12.2098 16.0519 13.0869 16.9935 13.0869 18.1524Z" fill="#929292"/>
<path d="M24.8261 18.1524C24.8261 19.3124 23.9492 20.253 22.8696 20.253C21.7901 20.253 20.9131 19.3124 20.9131 18.1524C20.9131 16.9934 21.7901 16.0519 22.8696 16.0519C23.9492 16.0519 24.8261 16.9935 24.8261 18.1524Z" fill="#929292"/>
<path d="M8.5625 13.125L13.1277 15.9257" stroke="#929292" stroke-width="4" stroke-miterlimit="10" stroke-linecap="round" stroke-linejoin="round"/>
<path d="M25.5191 13.125L20.9539 15.9257" stroke="#929292" stroke-width="4" stroke-miterlimit="10" stroke-linecap="round" stroke-linejoin="round"/>
<path d="M21.2795 25.7284C20.4421 26.1748 18.6808 26.4501 16.8173 26.4272C15.1063 26.4062 13.5631 26.1369 12.8013 25.7284" stroke="#929292" stroke-width="4" stroke-miterlimit="10" stroke-linecap="round" stroke-linejoin="round"/>
</svg>
