<svg width="51" height="39" viewBox="0 0 51 39" fill="none" xmlns="http://www.w3.org/2000/svg">
<path d="M29.4097 33.203H21.0069C20.4498 33.203 19.9155 32.991 19.5215 32.6136C19.1276 32.2363 18.9062 31.7244 18.9062 31.1907C18.9062 30.657 19.1276 30.1452 19.5215 29.7678C19.9155 29.3904 20.4498 29.1784 21.0069 29.1784H29.4097C29.9668 29.1784 30.5012 29.3904 30.8951 29.7678C31.2891 30.1452 31.5104 30.657 31.5104 31.1907C31.5104 31.7244 31.2891 32.2363 30.8951 32.6136C30.5012 32.991 29.9668 33.203 29.4097 33.203Z" fill="#929292"/>
<path d="M18.9064 17.1046C18.9064 17.3715 18.7957 17.6274 18.5987 17.8161C18.4017 18.0048 18.1346 18.1108 17.856 18.1108C17.5774 18.1108 17.3103 18.0048 17.1133 17.8161C16.9163 17.6274 16.8057 17.3715 16.8057 17.1046C16.8057 16.8378 16.9163 16.5819 17.1133 16.3932C17.3103 16.2045 17.5774 16.0985 17.856 16.0985C18.1346 16.0985 18.4017 16.2045 18.5987 16.3932C18.7957 16.5819 18.9064 16.8378 18.9064 17.1046Z" fill="#929292"/>
<path d="M18.9064 21.1292C18.9064 21.396 18.7957 21.652 18.5987 21.8407C18.4017 22.0293 18.1346 22.1354 17.856 22.1354C17.5774 22.1354 17.3103 22.0293 17.1133 21.8407C16.9163 21.652 16.8057 21.396 16.8057 21.1292C16.8057 20.8624 16.9163 20.6064 17.1133 20.4177C17.3103 20.2291 17.5774 20.123 17.856 20.123C18.1346 20.123 18.4017 20.2291 18.5987 20.4177C18.7957 20.6064 18.9064 20.8624 18.9064 21.1292Z" fill="#929292"/>
<path d="M18.9064 25.1538C18.9064 25.4206 18.7957 25.6765 18.5987 25.8652C18.4017 26.0539 18.1346 26.1599 17.856 26.1599C17.5774 26.1599 17.3103 26.0539 17.1133 25.8652C16.9163 25.6765 16.8057 25.4206 16.8057 25.1538C16.8057 24.8869 16.9163 24.631 17.1133 24.4423C17.3103 24.2536 17.5774 24.1476 17.856 24.1476C18.1346 24.1476 18.4017 24.2536 18.5987 24.4423C18.7957 24.631 18.9064 24.8869 18.9064 25.1538Z" fill="#929292"/>
<path d="M6.30211 20.123C6.30211 20.3899 6.19144 20.6458 5.99447 20.8345C5.79749 21.0232 5.53033 21.1292 5.25176 21.1292C4.97319 21.1292 4.70603 21.0232 4.50906 20.8345C4.31208 20.6458 4.20142 20.3899 4.20142 20.123C4.20142 19.8562 4.31208 19.6003 4.50906 19.4116C4.70603 19.2229 4.97319 19.1169 5.25176 19.1169C5.53033 19.1169 5.79749 19.2229 5.99447 19.4116C6.19144 19.6003 6.30211 19.8562 6.30211 20.123Z" fill="#929292"/>
<path d="M6.30211 24.1477C6.30211 24.4146 6.19144 24.6705 5.99447 24.8592C5.79749 25.0479 5.53033 25.1539 5.25176 25.1539C4.97319 25.1539 4.70603 25.0479 4.50906 24.8592C4.31208 24.6705 4.20142 24.4146 4.20142 24.1477C4.20142 23.8809 4.31208 23.625 4.50906 23.4363C4.70603 23.2476 4.97319 23.1416 5.25176 23.1416C5.53033 23.1416 5.79749 23.2476 5.99447 23.4363C6.19144 23.625 6.30211 23.8809 6.30211 24.1477Z" fill="#929292"/>
<path d="M6.30211 28.1723C6.30211 28.4392 6.19144 28.6951 5.99447 28.8838C5.79749 29.0725 5.53033 29.1785 5.25176 29.1785C4.97319 29.1785 4.70603 29.0725 4.50906 28.8838C4.31208 28.6951 4.20142 28.4392 4.20142 28.1723C4.20142 27.9055 4.31208 27.6495 4.50906 27.4608C4.70603 27.2722 4.97319 27.1662 5.25176 27.1662C5.53033 27.1662 5.79749 27.2722 5.99447 27.4608C6.19144 27.6495 6.30211 27.9055 6.30211 28.1723Z" fill="#929292"/>
<path d="M32.5606 18.1108H22.0572C21.7786 18.1108 21.5115 18.0048 21.3145 17.8161C21.1175 17.6274 21.0068 17.3715 21.0068 17.1046C21.0068 16.8378 21.1175 16.5819 21.3145 16.3932C21.5115 16.2045 21.7786 16.0985 22.0572 16.0985H32.5606C32.8392 16.0985 33.1064 16.2045 33.3033 16.3932C33.5003 16.5819 33.611 16.8378 33.611 17.1046C33.611 17.3715 33.5003 17.6274 33.3033 17.8161C33.1064 18.0048 32.8392 18.1108 32.5606 18.1108Z" fill="#929292"/>
<path d="M32.5606 22.1354H22.0572C21.7786 22.1354 21.5115 22.0293 21.3145 21.8407C21.1175 21.652 21.0068 21.396 21.0068 21.1292C21.0068 20.8624 21.1175 20.6064 21.3145 20.4177C21.5115 20.2291 21.7786 20.123 22.0572 20.123H32.5606C32.8392 20.123 33.1064 20.2291 33.3033 20.4177C33.5003 20.6064 33.611 20.8624 33.611 21.1292C33.611 21.396 33.5003 21.652 33.3033 21.8407C33.1064 22.0293 32.8392 22.1354 32.5606 22.1354Z" fill="#929292"/>
<path d="M32.5606 26.1599H22.0572C21.7786 26.1599 21.5115 26.0539 21.3145 25.8652C21.1175 25.6765 21.0068 25.4206 21.0068 25.1538C21.0068 24.8869 21.1175 24.631 21.3145 24.4423C21.5115 24.2536 21.7786 24.1476 22.0572 24.1476H32.5606C32.8392 24.1476 33.1064 24.2536 33.3033 24.4423C33.5003 24.631 33.611 24.8869 33.611 25.1538C33.611 25.4206 33.5003 25.6765 33.3033 25.8652C33.1064 26.0539 32.8392 26.1599 32.5606 26.1599Z" fill="#929292"/>
<path d="M32.5608 5.03079H17.856C17.2759 5.03079 16.8057 5.48126 16.8057 6.03694V12.0739C16.8057 12.6295 17.2759 13.08 17.856 13.08H32.5608C33.1409 13.08 33.6112 12.6295 33.6112 12.0739V6.03694C33.6112 5.48126 33.1409 5.03079 32.5608 5.03079Z" fill="#929292"/>
<path d="M45.165 8.04919H37.8126C37.2325 8.04919 36.7622 8.49966 36.7622 9.05535V15.0923C36.7622 15.6479 37.2325 16.0984 37.8126 16.0984H45.165C45.7451 16.0984 46.2153 15.6479 46.2153 15.0923V9.05535C46.2153 8.49966 45.7451 8.04919 45.165 8.04919Z" fill="#929292"/>
<path d="M12.6042 8.04919H5.25176C4.67167 8.04919 4.20142 8.49966 4.20142 9.05535V15.0923C4.20142 15.6479 4.67167 16.0984 5.25176 16.0984H12.6042C13.1843 16.0984 13.6545 15.6479 13.6545 15.0923V9.05535C13.6545 8.49966 13.1843 8.04919 12.6042 8.04919Z" fill="#929292"/>
<path d="M47.2655 3.01846H38.8628C38.8628 2.21791 38.5308 1.45016 37.9398 0.884085C37.3489 0.318015 36.5474 0 35.7117 0H14.7048C13.8691 0 13.0676 0.318015 12.4767 0.884085C11.8858 1.45016 11.5538 2.21791 11.5538 3.01846H3.15104C2.31533 3.01846 1.51385 3.33647 0.922917 3.90254C0.331983 4.46861 0 5.23637 0 6.03691L0 32.1969C0 32.9974 0.331983 33.7652 0.922917 34.3312C1.51385 34.8973 2.31533 35.2153 3.15104 35.2153H11.5538C11.5538 36.0159 11.8858 36.7836 12.4767 37.3497C13.0676 37.9157 13.8691 38.2338 14.7048 38.2338H35.7117C36.5474 38.2338 37.3489 37.9157 37.9398 37.3497C38.5308 36.7836 38.8628 36.0159 38.8628 35.2153H47.2655C48.1012 35.2153 48.9027 34.8973 49.4936 34.3312C50.0846 33.7652 50.4166 32.9974 50.4166 32.1969V6.03691C50.4166 5.23637 50.0846 4.46861 49.4936 3.90254C48.9027 3.33647 48.1012 3.01846 47.2655 3.01846ZM3.15104 33.203C2.87247 33.203 2.60531 33.097 2.40833 32.9083C2.21135 32.7196 2.10069 32.4637 2.10069 32.1969V6.03691C2.10069 5.77006 2.21135 5.51414 2.40833 5.32545C2.60531 5.13676 2.87247 5.03076 3.15104 5.03076H11.5538V19.1169H9.45311C9.17454 19.1169 8.90738 19.2229 8.7104 19.4116C8.51342 19.6003 8.40276 19.8562 8.40276 20.123C8.40276 20.3899 8.51342 20.6458 8.7104 20.8345C8.90738 21.0232 9.17454 21.1292 9.45311 21.1292H11.5538V23.1415H9.45311C9.17454 23.1415 8.90738 23.2475 8.7104 23.4362C8.51342 23.6249 8.40276 23.8808 8.40276 24.1476C8.40276 24.4145 8.51342 24.6704 8.7104 24.8591C8.90738 25.0478 9.17454 25.1538 9.45311 25.1538H11.5538V27.1661H9.45311C9.17454 27.1661 8.90738 27.2721 8.7104 27.4608C8.51342 27.6495 8.40276 27.9054 8.40276 28.1722C8.40276 28.4391 8.51342 28.695 8.7104 28.8837C8.90738 29.0724 9.17454 29.1784 9.45311 29.1784H11.5538V33.203H3.15104ZM36.7621 35.2153C36.7621 35.4822 36.6514 35.7381 36.4544 35.9268C36.2575 36.1155 35.9903 36.2215 35.7117 36.2215H14.7048C14.4263 36.2215 14.1591 36.1155 13.9621 35.9268C13.7651 35.7381 13.6545 35.4822 13.6545 35.2153V3.01846C13.6545 2.75161 13.7651 2.49569 13.9621 2.307C14.1591 2.11831 14.4263 2.0123 14.7048 2.0123H35.7117C35.9903 2.0123 36.2575 2.11831 36.4544 2.307C36.6514 2.49569 36.7621 2.75161 36.7621 3.01846V35.2153ZM48.3159 32.1969C48.3159 32.4637 48.2052 32.7196 48.0082 32.9083C47.8113 33.097 47.5441 33.203 47.2655 33.203H38.8628V29.1784H45.1648C45.4434 29.1784 45.7106 29.0724 45.9075 28.8837C46.1045 28.695 46.2152 28.4391 46.2152 28.1722C46.2152 27.9054 46.1045 27.6495 45.9075 27.4608C45.7106 27.2721 45.4434 27.1661 45.1648 27.1661H38.8628V25.1538H45.1648C45.4434 25.1538 45.7106 25.0478 45.9075 24.8591C46.1045 24.6704 46.2152 24.4145 46.2152 24.1476C46.2152 23.8808 46.1045 23.6249 45.9075 23.4362C45.7106 23.2475 45.4434 23.1415 45.1648 23.1415H38.8628V21.1292H45.1648C45.4434 21.1292 45.7106 21.0232 45.9075 20.8345C46.1045 20.6458 46.2152 20.3899 46.2152 20.123C46.2152 19.8562 46.1045 19.6003 45.9075 19.4116C45.7106 19.2229 45.4434 19.1169 45.1648 19.1169H38.8628V5.03076H47.2655C47.5441 5.03076 47.8113 5.13676 48.0082 5.32545C48.2052 5.51414 48.3159 5.77006 48.3159 6.03691V32.1969Z" fill="#929292"/>
</svg>
