<svg width="364" height="99" viewBox="0 0 364 99" fill="none" xmlns="http://www.w3.org/2000/svg">
<rect x="1" y="1" width="362" height="97" rx="9" stroke="#C6C6C6" stroke-width="2"/>
<line x1="182.5" x2="182.5" y2="99" stroke="black" stroke-opacity="0.37"/>
<path d="M49.152 18.112C52.584 18.112 55.2 20.392 55.2 23.56C55.2 26.728 52.584 28.984 49.152 28.984C45.72 28.984 43.104 26.728 43.104 23.56C43.104 20.392 45.72 18.112 49.152 18.112ZM49.152 20.824C47.472 20.824 46.224 21.808 46.224 23.56C46.224 25.312 47.472 26.32 49.152 26.32C50.832 26.32 52.08 25.312 52.08 23.56C52.08 21.808 50.832 20.824 49.152 20.824ZM57.264 16.912H60.456V29.896H57.264V16.912ZM59.568 22.096H63.408V24.712H59.568V22.096ZM45.624 30.856H60.456V39.16H57.264V33.4H45.624V30.856ZM70.1981 18.064H72.8621V20.056C72.8621 24.52 70.8701 28.432 66.5021 29.896L64.8461 27.328C68.6381 26.104 70.1981 23.104 70.1981 20.056V18.064ZM70.8701 18.064H73.4381V19.912C73.4381 22.864 74.8781 25.6 78.4061 26.728L76.7501 29.224C72.6461 27.808 70.8701 24.232 70.8701 19.912V18.064ZM80.4461 16.912H83.6381V29.92H80.4461V16.912ZM76.1021 30.496C80.8061 30.496 83.7101 32.104 83.7101 34.816C83.7101 37.552 80.8061 39.136 76.1021 39.136C71.3981 39.136 68.4941 37.552 68.4941 34.816C68.4941 32.104 71.3981 30.496 76.1021 30.496ZM76.1021 32.968C73.2221 32.968 71.6861 33.568 71.6861 34.816C71.6861 36.064 73.2221 36.688 76.1021 36.688C79.0061 36.688 80.5421 36.064 80.5421 34.816C80.5421 33.568 79.0061 32.968 76.1021 32.968ZM76.3901 20.944H80.9021V23.536H76.3901V20.944ZM93.6934 19.192H102.477V33.592H93.6934V19.192ZM99.5014 21.688H96.6694V31.096H99.5014V21.688ZM109.125 16.912H112.173V39.136H109.125V16.912ZM100.869 24.976H105.861V27.544H100.869V24.976ZM104.589 17.248H107.589V38.128H104.589V17.248ZM121.412 17.56C124.796 17.56 127.34 19.672 127.34 22.648C127.34 25.6 124.796 27.712 121.412 27.712C118.028 27.712 115.484 25.6 115.484 22.648C115.484 19.672 118.028 17.56 121.412 17.56ZM121.412 20.152C119.78 20.152 118.556 21.064 118.556 22.648C118.556 24.232 119.78 25.144 121.412 25.144C123.044 25.144 124.244 24.232 124.244 22.648C124.244 21.064 123.044 20.152 121.412 20.152ZM130.412 16.912H133.628V28.024H130.412V16.912ZM118.796 28.936H133.628V35.032H121.964V37.72H118.844V32.728H130.46V31.408H118.796V28.936ZM118.844 36.424H134.18V38.896H118.844V36.424Z" fill="black"/>
<path d="M229.264 18.208H243.208V20.728H229.264V18.208ZM226.984 27.664H247.072V30.232H226.984V27.664ZM235.312 29.464H238.528V39.16H235.312V29.464ZM241.576 18.208H244.72V20.176C244.72 22.576 244.72 25.264 243.856 29.2L240.712 28.84C241.576 25.12 241.576 22.48 241.576 20.176V18.208ZM249.062 27.688H269.15V30.184H249.062V27.688ZM257.486 24.064H260.678V28.456H257.486V24.064ZM251.27 31.696H266.774V39.208H263.606V34.216H251.27V31.696ZM251.486 23.2H266.966V25.744H251.486V23.2ZM251.486 17.8H266.774V20.32H254.678V24.568H251.486V17.8ZM277.693 19.192H286.477V33.592H277.693V19.192ZM283.501 21.688H280.669V31.096H283.501V21.688ZM293.125 16.912H296.173V39.136H293.125V16.912ZM284.869 24.976H289.861V27.544H284.869V24.976ZM288.589 17.248H291.589V38.128H288.589V17.248ZM305.412 17.56C308.796 17.56 311.34 19.672 311.34 22.648C311.34 25.6 308.796 27.712 305.412 27.712C302.028 27.712 299.484 25.6 299.484 22.648C299.484 19.672 302.028 17.56 305.412 17.56ZM305.412 20.152C303.78 20.152 302.556 21.064 302.556 22.648C302.556 24.232 303.78 25.144 305.412 25.144C307.044 25.144 308.244 24.232 308.244 22.648C308.244 21.064 307.044 20.152 305.412 20.152ZM314.412 16.912H317.628V28.024H314.412V16.912ZM302.796 28.936H317.628V35.032H305.964V37.72H302.844V32.728H314.46V31.408H302.796V28.936ZM302.844 36.424H318.18V38.896H302.844V36.424Z" fill="black"/>
</svg>
